<?xml version="1.0" encoding="UTF-8" standalone="no"?>
<svg width="266px" height="299px" viewBox="0 0 266 299" version="1.1" xmlns="http://www.w3.org/2000/svg" xmlns:xlink="http://www.w3.org/1999/xlink" xmlns:sketch="http://www.bohemiancoding.com/sketch/ns">
    <!-- Generator: Sketch 3.5.2 (25235) - http://www.bohemiancoding.com/sketch -->
    <title>node</title>
    <desc>Created with Sketch.</desc>
    <defs></defs>
    <g id="Lo-Home" stroke="none" stroke-width="1" fill="none" fill-rule="evenodd" sketch:type="MSPage">
        <g id="node" sketch:type="MSLayerGroup" fill="#000000">
            <path d="M121.3,295.7 L84.7,274.3 C79.6,271.2 81.6,270.2 83.7,269.2 C90.8,267.2 92.9,266.1 100,262.1 L103.1,262.1 L131.6,278.4 C132.6,279.4 133.6,279.4 134.7,278.4 L244.5,215.3 C245.5,214.3 246.5,213.3 246.5,212.2 L246.5,87.3 C246.5,86.3 245.5,85.3 244.5,84.2 L134.7,21.1 C133.7,20.1 132.7,20.1 131.6,21.1 L21.8,84.2 C20.8,85.2 19.8,86.2 19.8,87.3 L19.8,213.4 C19.8,214.4 20.8,215.4 21.8,216.5 L51.3,233.8 C67.6,241.9 77.7,232.8 77.7,222.6 L77.7,97.5 C77.7,95.5 78.7,94.4 80.8,94.4 L95,94.4 C97,94.4 98.1,95.4 98.1,97.5 L98.1,222.6 C98.1,244 85.9,257.2 65.6,257.2 C59.5,257.2 54.4,257.2 40.2,250.1 L11.7,233.8 C4.6,229.7 0.5,221.6 0.5,213.5 L0.5,87.3 C0.5,79.2 4.6,71 11.7,67 L121.5,3.9 C128.6,-0.2 137.8,-0.2 144.9,3.9 L254.7,67 C261.8,71.1 265.9,79.2 265.9,87.3 L265.9,213.4 C265.9,221.5 261.8,229.7 254.7,233.7 L144.9,296.8 C139.6,297.8 136.6,298.8 132.5,298.8 C128.4,298.8 124.4,297.8 121.3,295.7 Z" id="Shape" sketch:type="MSShapeGroup"></path>
            <path d="M166.1,212.4 C118.3,212.4 108.1,190 108.1,171.7 C108.1,169.7 109.1,168.6 111.2,168.6 L125.4,168.6 C127.4,168.6 128.5,169.6 128.5,171.7 C130.5,185.9 136.6,193.1 166.1,193.1 C189.5,193.1 198.6,188 198.6,175.8 C198.6,168.7 195.5,163.6 160,159.5 C130.5,156.4 111.2,150.3 111.2,125.9 C111.2,103.5 129.5,90.3 161,90.3 C195.6,90.3 213.9,102.5 215.9,128.9 C215.9,129.9 215.9,130.9 214.9,130.9 C213.9,131.9 213.9,131.9 212.9,131.9 L198.7,131.9 C197.7,131.9 195.6,130.9 195.6,129.9 C192.5,114.6 184.4,109.6 161,109.6 C135.6,109.6 132.5,118.8 132.5,124.9 C132.5,133 135.6,135.1 170.1,140.2 C203.7,144.3 219.9,151.4 219.9,174.8 C220,198.2 200.7,212.4 166.1,212.4 L166.1,212.4 Z" id="Shape" sketch:type="MSShapeGroup"></path>
        </g>
    </g>
</svg>